<?xml version="1.0" encoding="utf-8"?>
<!-- Generator: Adobe Illustrator 16.0.0, SVG Export Plug-In . SVG Version: 6.00 Build 0)  -->
<!DOCTYPE svg PUBLIC "-//W3C//DTD SVG 1.1//EN" "http://www.w3.org/Graphics/SVG/1.1/DTD/svg11.dtd">
<svg version="1.1" id="Layer_1" xmlns="http://www.w3.org/2000/svg" xmlns:xlink="http://www.w3.org/1999/xlink" x="0px" y="0px"
	 width="100px" height="100px" viewBox="0 0 100 100" enable-background="new 0 0 100 100" xml:space="preserve">
<g>
	<g>
		<path fill="#808285" d="M92.254,74.58c0,2.108-1.73,3.818-3.863,3.818H11.118c-2.134,0-3.864-1.71-3.864-3.818V21.125
			c0-2.108,1.729-3.818,3.864-3.818h77.273c2.133,0,3.863,1.71,3.863,3.818V74.58z"/>
	</g>
	<g>
		<rect x="38.163" y="78.398" fill="#353535" width="23.182" height="9.783"/>
	</g>
	<g>
		<path fill="#3E3E3F" d="M69.071,90.09c0,1.056-0.863,1.91-1.931,1.91H32.368c-1.067,0-1.932-0.854-1.932-1.91
			c0-1.053,0.865-1.908,1.932-1.908h34.773C68.208,88.182,69.071,89.037,69.071,90.09z"/>
	</g>
	<g>
		<path fill="#3E3E3F" d="M92.254,74.58V63.125h-85V74.58c0,2.108,1.73,3.818,3.864,3.818h77.273
			C90.523,78.398,92.254,76.688,92.254,74.58z"/>
	</g>
	<g>
		<path fill="#353535" d="M49.754,76.131c-2.862,0-5.192-2.302-5.192-5.131s2.33-5.13,5.192-5.13s5.191,2.301,5.191,5.13
			S52.616,76.131,49.754,76.131z M49.754,68.495c-1.398,0-2.536,1.123-2.536,2.505s1.138,2.506,2.536,2.506
			c1.398,0,2.535-1.124,2.535-2.506S51.152,68.495,49.754,68.495z"/>
	</g>
	<g>
		<path fill="#939598" d="M7.254,21.125v42h26.195l46.364-45.818H11.118C8.984,17.307,7.254,19.017,7.254,21.125z"/>
	</g>
	<g>
		<path fill="#3E3E3F" d="M11.833,28.167v25c0,3.313,2.687,6,6,6h39.333c3.313,0,6-2.687,6-6v-25c0-1.301-0.418-2.501-1.122-3.484
			h-49.09C12.252,25.665,11.833,26.866,11.833,28.167z"/>
		<path fill="#FFFFFF" d="M57.167,22.167H17.833c-2.013,0-3.79,0.995-4.878,2.516h49.09C60.957,23.161,59.18,22.167,57.167,22.167z"
			/>
	</g>
	<g>
		<g>
			<path fill="#FFFFFF" d="M18.76,33.051c0-1.056,0.362-1.651,1.058-1.651s1.058,0.595,1.058,1.651c0,1.062-0.362,1.656-1.058,1.656
				S18.76,34.114,18.76,33.051z M20.434,33.051c0-0.932-0.227-1.312-0.617-1.312c-0.385,0-0.617,0.38-0.617,1.312
				c0,0.938,0.232,1.318,0.617,1.318C20.207,34.369,20.434,33.989,20.434,33.051z M19.817,32.75c0.176,0,0.306,0.135,0.306,0.301
				c0,0.172-0.13,0.307-0.306,0.307c-0.171,0-0.301-0.134-0.301-0.307C19.516,32.885,19.646,32.75,19.817,32.75z"/>
		</g>
		<g>
			<path fill="#FFFFFF" d="M22.584,31.926l-0.765,0.464l-0.205-0.298l1.021-0.636h0.376v2.853h0.654v0.343h-1.865v-0.343h0.784
				V31.926z"/>
		</g>
		<g>
			<path fill="#FFFFFF" d="M28.955,31.888l0.204,0.32L27.535,33.2l1.624,0.998l-0.223,0.311l-1.768-1.103v-0.414L28.955,31.888z"/>
		</g>
		<g>
			<path fill="#FFFFFF" d="M31.522,34.652v-1.498h-1.16v1.498h-0.441v-3.196h0.441v1.336h1.16v-1.336h0.441v3.196H31.522z"/>
		</g>
		<g>
			<path fill="#FFFFFF" d="M33.937,31.827v2.825h-0.441v-2.825h-0.988v-0.371h2.43l-0.046,0.371H33.937z"/>
		</g>
		<g>
			<path fill="#FFFFFF" d="M37.344,34.652l-0.092-1.637c-0.023-0.45-0.023-0.97-0.019-1.072h-0.014l-0.506,2.139h-0.422
				l-0.529-2.139h-0.019c0,0.107,0.01,0.659-0.01,1.072l-0.079,1.637h-0.408l0.181-3.196h0.584l0.492,2.134h0.019l0.469-2.134h0.589
				l0.181,3.196H37.344z"/>
		</g>
		<g>
			<path fill="#FFFFFF" d="M38.502,34.652v-3.196h0.44v2.811h1.452l-0.051,0.385H38.502z"/>
		</g>
		<g>
			<path fill="#FFFFFF" d="M43.065,32.992v0.414l-1.768,1.103l-0.223-0.311l1.624-0.998l-1.624-0.992l0.205-0.32L43.065,32.992z"/>
		</g>
		<g>
			<path fill="#FFFFFF" d="M18.76,38.615c0-1.058,0.362-1.651,1.058-1.651s1.058,0.594,1.058,1.651c0,1.062-0.362,1.656-1.058,1.656
				S18.76,39.677,18.76,38.615z M20.434,38.615c0-0.933-0.227-1.313-0.617-1.313c-0.385,0-0.617,0.38-0.617,1.313
				c0,0.937,0.232,1.318,0.617,1.318C20.207,39.933,20.434,39.552,20.434,38.615z M19.817,38.313c0.176,0,0.306,0.134,0.306,0.301
				c0,0.171-0.13,0.306-0.306,0.306c-0.171,0-0.301-0.135-0.301-0.306C19.516,38.447,19.646,38.313,19.817,38.313z"/>
		</g>
		<g>
			<path fill="#FFFFFF" d="M22.093,39.857h1.452l-0.051,0.357h-1.901v-0.338c1.104-1.095,1.442-1.536,1.442-2.018
				c0-0.343-0.232-0.538-0.542-0.538c-0.265,0-0.445,0.097-0.641,0.343l-0.297-0.208c0.25-0.312,0.566-0.492,0.96-0.492
				c0.584,0,0.96,0.371,0.96,0.882C23.475,38.401,23.035,38.958,22.093,39.857z"/>
		</g>
		<g>
			<path fill="#FFFFFF" d="M28.955,37.451l0.204,0.32l-1.624,0.993l1.624,0.997l-0.223,0.311l-1.768-1.104v-0.414L28.955,37.451z"/>
		</g>
		<g>
			<path fill="#FFFFFF" d="M30.859,40.215h-0.881V37.02h0.812c0.57,0,1.141,0.18,1.141,0.807c0,0.408-0.288,0.621-0.556,0.682v0.019
				c0.32,0.06,0.695,0.246,0.695,0.774C32.069,40.001,31.457,40.215,30.859,40.215z M30.868,37.366h-0.45v1.002h0.487
				c0.371,0,0.575-0.153,0.575-0.515C31.48,37.501,31.249,37.366,30.868,37.366z M30.938,38.721h-0.52v1.136h0.501
				c0.311,0,0.687-0.088,0.687-0.547C31.606,38.842,31.304,38.721,30.938,38.721z"/>
		</g>
		<g>
			<path fill="#FFFFFF" d="M33.724,40.271c-0.784,0-1.188-0.655-1.188-1.647c0-0.975,0.404-1.661,1.188-1.661
				c0.784,0,1.187,0.663,1.187,1.656C34.911,39.594,34.508,40.271,33.724,40.271z M33.724,37.325c-0.52,0-0.729,0.454-0.729,1.299
				s0.222,1.285,0.729,1.285c0.519,0,0.728-0.446,0.728-1.29C34.452,37.775,34.243,37.325,33.724,37.325z"/>
		</g>
		<g>
			<path fill="#FFFFFF" d="M36.231,40.215h-0.747V37.02h0.696c0.756,0,1.508,0.255,1.508,1.581
				C37.688,39.936,36.908,40.215,36.231,40.215z M36.278,37.372h-0.353v2.495h0.357c0.454,0,0.937-0.232,0.937-1.266
				C37.219,37.515,36.713,37.372,36.278,37.372z"/>
		</g>
		<g>
			<path fill="#FFFFFF" d="M39.509,38.986v1.229h-0.445v-1.224l-1.076-1.971h0.487l0.816,1.562h0.014l0.821-1.562h0.459
				L39.509,38.986z"/>
		</g>
		<g>
			<path fill="#FFFFFF" d="M43.065,38.554v0.414l-1.768,1.104l-0.223-0.311l1.624-0.997l-1.624-0.993l0.205-0.32L43.065,38.554z"/>
		</g>
		<g>
			<path fill="#FFFFFF" d="M18.76,44.177c0-1.058,0.362-1.65,1.058-1.65s1.058,0.593,1.058,1.65c0,1.062-0.362,1.656-1.058,1.656
				S18.76,45.239,18.76,44.177z M20.434,44.177c0-0.932-0.227-1.312-0.617-1.312c-0.385,0-0.617,0.38-0.617,1.312
				c0,0.937,0.232,1.318,0.617,1.318C20.207,45.495,20.434,45.114,20.434,44.177z M19.817,43.875c0.176,0,0.306,0.134,0.306,0.301
				c0,0.172-0.13,0.306-0.306,0.306c-0.171,0-0.301-0.133-0.301-0.306C19.516,44.009,19.646,43.875,19.817,43.875z"/>
		</g>
		<g>
			<path fill="#FFFFFF" d="M22.473,45.833c-0.371,0-0.751-0.135-0.997-0.431l0.277-0.232c0.181,0.213,0.446,0.315,0.705,0.315
				c0.432,0,0.692-0.241,0.692-0.63c0-0.445-0.274-0.594-0.65-0.594h-0.246l0.051-0.331h0.167c0.306,0,0.594-0.171,0.594-0.542
				c0-0.339-0.26-0.524-0.589-0.524c-0.274,0-0.464,0.097-0.673,0.292l-0.232-0.254c0.274-0.26,0.589-0.376,0.928-0.376
				c0.612,0,0.993,0.366,0.993,0.802c0,0.389-0.288,0.677-0.607,0.737v0.019c0.353,0.023,0.709,0.288,0.709,0.774
				C23.596,45.41,23.146,45.833,22.473,45.833z"/>
		</g>
		<g>
			<path fill="#FFFFFF" d="M28.955,43.013l0.204,0.32l-1.624,0.993l1.624,0.997l-0.223,0.312l-1.768-1.104v-0.412L28.955,43.013z"/>
		</g>
		<g>
			<path fill="#FFFFFF" d="M31.522,45.777v-1.498h-1.16v1.498h-0.441v-3.195h0.441v1.336h1.16v-1.336h0.441v3.195H31.522z"/>
		</g>
		<g>
			<path fill="#FFFFFF" d="M33.292,42.934v1.043h1.178v0.353h-1.178v1.099h1.443v0.348h-1.883v-3.195h1.846l-0.05,0.353H33.292z"/>
		</g>
		<g>
			<path fill="#FFFFFF" d="M37.108,44.975h-1.23l-0.246,0.802h-0.44l1.034-3.195h0.557l1.034,3.195h-0.464L37.108,44.975z
				 M35.986,44.617h1.015l-0.496-1.636h-0.019L35.986,44.617z"/>
		</g>
		<g>
			<path fill="#FFFFFF" d="M39.013,45.777h-0.747v-3.195h0.696c0.755,0,1.507,0.255,1.507,1.581
				C40.469,45.499,39.689,45.777,39.013,45.777z M39.059,42.934h-0.353v2.495h0.357c0.455,0,0.937-0.231,0.937-1.266
				C40,43.078,39.495,42.934,39.059,42.934z"/>
		</g>
		<g>
			<path fill="#FFFFFF" d="M41.636,42.934v1.043h1.179v0.353h-1.179v1.099h1.443v0.348h-1.883v-3.195h1.847l-0.051,0.353H41.636z"/>
		</g>
		<g>
			<path fill="#FFFFFF" d="M45.197,44.368l0.937,1.409h-0.524l-0.854-1.354h-0.408v1.354h-0.44v-3.195h0.839
				c0.798,0,1.216,0.306,1.216,0.904C45.962,43.965,45.628,44.256,45.197,44.368z M44.789,42.925h-0.441v1.16h0.445
				c0.445,0,0.7-0.167,0.7-0.599C45.493,43.087,45.266,42.925,44.789,42.925z"/>
		</g>
		<g>
			<path fill="#FFFFFF" d="M48.627,44.117v0.412l-1.768,1.104l-0.222-0.312l1.623-0.997l-1.623-0.993l0.204-0.32L48.627,44.117z"/>
		</g>
		<g>
			<path fill="#FFFFFF" d="M18.76,49.74c0-1.058,0.362-1.651,1.058-1.651s1.058,0.594,1.058,1.651c0,1.062-0.362,1.657-1.058,1.657
				S18.76,50.802,18.76,49.74z M20.434,49.74c0-0.932-0.227-1.312-0.617-1.312c-0.385,0-0.617,0.38-0.617,1.312
				c0,0.938,0.232,1.317,0.617,1.317C20.207,51.057,20.434,50.677,20.434,49.74z M19.817,49.438c0.176,0,0.306,0.135,0.306,0.301
				c0,0.172-0.13,0.307-0.306,0.307c-0.171,0-0.301-0.135-0.301-0.307C19.516,49.574,19.646,49.438,19.817,49.438z"/>
		</g>
		<g>
			<path fill="#FFFFFF" d="M23.248,50.575v0.766h-0.413v-0.766h-1.308v-0.302l0.937-2.185l0.357,0.149l-0.844,1.999h0.858
				l0.042-0.835h0.371v0.835h0.404v0.339H23.248z"/>
		</g>
		<g>
			<path fill="#FFFFFF" d="M28.955,48.576l0.204,0.32l-1.624,0.992l1.624,0.998l-0.223,0.312l-1.768-1.104V49.68L28.955,48.576z"/>
		</g>
		<g>
			<path fill="#FFFFFF" d="M30.126,51.822l-0.343-0.153l1.981-4.085l0.338,0.163L30.126,51.822z"/>
		</g>
		<g>
			<path fill="#FFFFFF" d="M34.304,51.341v-1.498h-1.16v1.498h-0.44v-3.196h0.44v1.335h1.16v-1.335h0.44v3.196H34.304z"/>
		</g>
		<g>
			<path fill="#FFFFFF" d="M36.074,48.496v1.044h1.178v0.353h-1.178v1.099h1.442v0.349h-1.883v-3.196h1.846l-0.051,0.352H36.074z"/>
		</g>
		<g>
			<path fill="#FFFFFF" d="M39.889,50.539H38.66l-0.246,0.802h-0.44l1.035-3.196h0.556l1.035,3.196h-0.464L39.889,50.539z
				 M38.767,50.181h1.016l-0.497-1.638h-0.019L38.767,50.181z"/>
		</g>
		<g>
			<path fill="#FFFFFF" d="M41.794,51.341h-0.747v-3.196h0.696c0.756,0,1.508,0.255,1.508,1.582
				C43.25,51.062,42.472,51.341,41.794,51.341z M41.84,48.496h-0.352v2.496h0.356c0.455,0,0.938-0.232,0.938-1.266
				C42.782,48.64,42.276,48.496,41.84,48.496z"/>
		</g>
		<g>
			<path fill="#FFFFFF" d="M44.417,48.496v1.044h1.178v0.353h-1.178v1.099h1.442v0.349h-1.883v-3.196h1.846l-0.051,0.352H44.417z"/>
		</g>
		<g>
			<path fill="#FFFFFF" d="M47.978,49.93l0.937,1.411h-0.524l-0.854-1.354h-0.408v1.354h-0.441v-3.196h0.839
				c0.798,0,1.215,0.306,1.215,0.904C48.743,49.527,48.409,49.818,47.978,49.93z M47.57,48.488h-0.44v1.159h0.445
				c0.445,0,0.701-0.167,0.701-0.599C48.275,48.649,48.047,48.488,47.57,48.488z"/>
		</g>
		<g>
			<path fill="#FFFFFF" d="M51.408,49.68v0.413l-1.767,1.104l-0.223-0.312l1.623-0.998l-1.623-0.992l0.204-0.32L51.408,49.68z"/>
		</g>
	</g>
</g>
<circle fill="#F15A30" cx="18.75" cy="23.425" r="0.646"/>
<circle fill="#00A14B" cx="22.627" cy="23.425" r="0.646"/>
<circle fill="#FFDE17" cx="20.688" cy="23.425" r="0.646"/>
</svg>
