<?xml version="1.0" encoding="utf-8"?>
<!-- Generator: Adobe Illustrator 16.0.0, SVG Export Plug-In . SVG Version: 6.00 Build 0)  -->
<!DOCTYPE svg PUBLIC "-//W3C//DTD SVG 1.1//EN" "http://www.w3.org/Graphics/SVG/1.1/DTD/svg11.dtd">
<svg version="1.1" id="Layer_1" xmlns="http://www.w3.org/2000/svg" xmlns:xlink="http://www.w3.org/1999/xlink" x="0px" y="0px"
	 width="100px" height="100px" viewBox="0 0 100 100" enable-background="new 0 0 100 100" xml:space="preserve">
<g>
	<path fill="#F15A32" d="M49.754,31.035c-0.009,0-0.019-0.002-0.028-0.002c-2.157,0-3.906,1.749-3.906,3.907
		c0,2.158,1.749,3.907,3.906,3.907c0.009,0,0.019-0.002,0.028-0.002s0.019,0.002,0.028,0.002c2.157,0,3.907-1.749,3.907-3.907
		c0-2.158-1.75-3.907-3.907-3.907C49.773,31.033,49.763,31.035,49.754,31.035z"/>
	<path fill="#F15A32" d="M61.582,30.593l3.38-1.973c-3.062-5.204-8.824-8.694-15.18-8.694c-0.009,0-0.019,0.002-0.028,0.002
		s-0.019-0.002-0.028-0.002c-6.355,0-12.118,3.49-15.178,8.694l3.378,1.973c2.049-3.745,6.656-6.76,11.8-6.76
		c0.009,0,0.019,0.001,0.028,0.001s0.019-0.001,0.028-0.001C54.926,23.833,59.535,26.848,61.582,30.593z"/>
	<path fill="#F15A32" d="M49.726,11.116c0.009,0,0.019,0,0.028,0s0.019,0,0.028,0c9.507,0,18.019,4.478,23.346,11.585l3.105-2.384
		C69.437,11.584,59.861,7.208,49.782,7.208c-0.009,0-0.019,0-0.028,0s-0.019,0-0.028,0c-9.986,0-19.599,4.304-26.452,13.108
		l3.106,2.384C31.702,15.602,40.207,11.116,49.726,11.116z"/>
	<g>
		<path fill="#353535" d="M82.768,84.413h-5.502H56.632v2.751h-2.269l0.892,5.502h25.234c4.981,0,9.761-1.979,13.283-5.502v-2.751
			H82.768z"/>
		<path fill="#353535" d="M42.876,84.413H22.242H16.74H5.735v2.751c3.522,3.522,8.302,5.502,13.283,5.502h25.236l0.892-5.502h-2.271
			V84.413z"/>
	</g>
	<path fill="#666666" d="M57.897,48.648l-6.15,6.15c1.189,3.216,1.724,8.059,1.029,11.975l11.256,7.708
		c0.278,0.192,0.415,0.53,0.347,0.862s-0.34,0.545-0.661,0.653c-2.369,0.795-7.48-0.546-11.644-2.942l1.843,11.359h2.715h20.634
		V48.648H57.897z M69.014,67.976h-9.6c-0.027,0-0.053-0.007-0.079-0.008l-0.009,0.008c-0.107-0.002-0.208-0.025-0.312-0.04
		c-0.07-0.01-0.142-0.012-0.21-0.026c-0.125-0.027-0.243-0.07-0.361-0.112c-0.055-0.02-0.114-0.033-0.169-0.058
		c-0.133-0.057-0.258-0.129-0.38-0.205c-0.032-0.021-0.067-0.035-0.1-0.057c-0.143-0.097-0.275-0.207-0.397-0.328
		c-0.007-0.007-0.015-0.012-0.021-0.018c-0.519-0.519-0.841-1.232-0.841-2.026c0-0.002,0-0.003,0-0.004c0-0.002,0-0.003,0-0.005
		c0-1.968,1.919-2.872,2.975-2.872c0.442-2.197,2.382-3.849,4.703-3.849c2.324,0,4.264,1.651,4.705,3.849
		c1.056,0,2.976,0.906,2.976,2.872C71.893,66.689,70.606,67.976,69.014,67.976z"/>
	<path fill="#666666" d="M47.591,72.089l-10.424,5.254c-0.302,0.152-0.666,0.107-0.922-0.111c-0.257-0.221-0.314-0.562-0.253-0.895
		c0.556-3.057,6.05-8.239,11.239-10.321l0.723-7.424L22.242,84.303v0.11h20.634h2.717L47.591,72.089z"/>
	<path fill="#808080" d="M48.563,52.33c0.033-0.336,0.264-0.619,0.586-0.719c0.323-0.101,0.644,0.033,0.892,0.264
		c0.65,0.598,1.229,1.633,1.705,2.923l6.15-6.15H22.242v35.655l25.711-25.711L48.563,52.33z M40.095,63.823h-9.6
		c-0.03,0-0.057-0.008-0.086-0.008h-0.001c-0.008,0-0.015-0.003-0.022-0.003c-0.573-0.021-1.103-0.205-1.542-0.513
		c-0.006-0.004-0.011-0.01-0.017-0.014c-0.141-0.101-0.273-0.211-0.394-0.333c-0.02-0.021-0.035-0.046-0.054-0.067
		c-0.102-0.111-0.201-0.226-0.285-0.352c-0.032-0.05-0.055-0.104-0.084-0.156c-0.062-0.105-0.126-0.211-0.173-0.325
		c-0.038-0.09-0.059-0.188-0.088-0.283c-0.025-0.083-0.059-0.162-0.076-0.25c-0.038-0.186-0.058-0.377-0.058-0.574
		c0-1.969,1.92-2.87,2.976-2.87c0.441-2.199,2.38-3.85,4.702-3.85c0.314,0,0.618,0.035,0.915,0.093
		c0.06,0.012,0.116,0.033,0.174,0.047c0.244,0.057,0.48,0.128,0.708,0.219c0.038,0.017,0.072,0.035,0.109,0.051
		c0.249,0.109,0.486,0.237,0.711,0.385c0.011,0.007,0.022,0.016,0.034,0.022c0.245,0.164,0.472,0.348,0.682,0.554h0l0,0
		c0.68,0.662,1.176,1.511,1.371,2.479c1.056,0,2.976,0.903,2.976,2.87C42.974,62.538,41.688,63.823,40.095,63.823z"/>
	<g>
		<path fill="#3E3E3F" d="M77.266,43.146H22.242c-3.039,0-5.502,2.464-5.502,5.502v35.765h5.502v-0.11V48.648h35.655h19.368v35.765
			h5.502V48.648C82.768,45.609,80.304,43.146,77.266,43.146z"/>
		<polygon fill="#3E3E3F" points="42.876,87.164 45.146,87.164 45.593,84.413 42.876,84.413 		"/>
		<polygon fill="#3E3E3F" points="54.363,87.164 56.632,87.164 56.632,84.413 53.917,84.413 		"/>
	</g>
	<path fill="#E2E4E5" d="M54.363,87.164l-0.446-2.751l-1.843-11.359c-0.822-0.475-1.6-0.993-2.32-1.539v12.898v2.751v5.502h5.501
		L54.363,87.164z"/>
	<g>
		<path fill="#F1F1F1" d="M39.998,58.075c-0.194-0.969-0.69-1.817-1.371-2.479l-8.218,8.22c0.029,0,0.056,0.008,0.086,0.008h9.6
			c1.593,0,2.879-1.285,2.879-2.878C42.974,58.979,41.054,58.075,39.998,58.075z"/>
		<path fill="#F1F1F1" d="M30.386,63.812c-0.572-0.021-1.103-0.206-1.542-0.513C29.283,63.607,29.812,63.791,30.386,63.812z"/>
		<path fill="#F1F1F1" d="M68.917,62.225c-0.441-2.197-2.381-3.849-4.705-3.849c-2.321,0-4.261,1.651-4.703,3.849
			c-1.056,0-2.975,0.904-2.975,2.872c0,0.002,0,0.003,0,0.005c0.002-1.966,1.919-2.866,2.975-2.866
			c0.442-2.198,2.382-3.85,4.703-3.85c1.302,0,2.47,0.529,3.335,1.37l-8.212,8.212c0.026,0.001,0.052,0.008,0.079,0.008h9.6
			c1.593,0,2.879-1.286,2.879-2.879C71.893,63.131,69.973,62.225,68.917,62.225z"/>
	</g>
	<g>
		<path fill="#FFFFFF" d="M52.776,66.772c0.694-3.916,0.16-8.759-1.029-11.975c-0.477-1.29-1.055-2.325-1.705-2.923
			c-0.249-0.23-0.569-0.364-0.892-0.264c-0.322,0.1-0.553,0.383-0.586,0.719l-0.61,6.262l-0.723,7.424
			c-5.189,2.082-10.684,7.265-11.239,10.321c-0.061,0.333-0.003,0.674,0.253,0.895c0.256,0.219,0.62,0.264,0.922,0.111l10.424-5.254
			l-1.999,12.324l-0.446,2.751l-0.892,5.502h5.5v-5.502v-2.751V71.515c0.72,0.546,1.498,1.064,2.32,1.539
			c4.163,2.396,9.274,3.737,11.644,2.942c0.321-0.108,0.593-0.321,0.661-0.653s-0.068-0.67-0.347-0.862L52.776,66.772z
			 M52.521,67.976c0,0.825-0.368,1.558-0.94,2.063c-0.121,0.107-0.248,0.204-0.386,0.289c-0.008,0.004-0.016,0.008-0.022,0.012
			c-0.132,0.079-0.267,0.15-0.41,0.207c-0.046,0.018-0.096,0.028-0.143,0.045c-0.048,0.016-0.095,0.03-0.144,0.044
			c-0.065,0.018-0.127,0.042-0.193,0.054c-0.171,0.033-0.348,0.054-0.529,0.054s-0.357-0.021-0.529-0.054
			c-0.116-0.021-0.224-0.061-0.333-0.097c-0.048-0.017-0.1-0.027-0.146-0.046c-0.112-0.044-0.216-0.101-0.32-0.158
			c-0.032-0.018-0.064-0.032-0.096-0.051c-0.004-0.005-0.01-0.006-0.015-0.009c-0.14-0.086-0.269-0.184-0.39-0.293
			c-0.303-0.269-0.553-0.595-0.715-0.974c0-0.001-0.002-0.003-0.002-0.004c-0.063-0.149-0.109-0.307-0.146-0.466
			c-0.004-0.02-0.013-0.036-0.017-0.057c-0.038-0.182-0.057-0.368-0.057-0.561c0-0.279,0.054-0.544,0.131-0.798
			c0.194-0.642,0.606-1.185,1.16-1.536c0.428-0.271,0.933-0.435,1.477-0.435c0.769,0,1.463,0.314,1.964,0.819
			c0,0.002,0.001,0.002,0.001,0.002c0.014,0.013,0.023,0.03,0.037,0.044c0.471,0.496,0.764,1.162,0.766,1.899
			C52.521,67.974,52.521,67.975,52.521,67.976z"/>
		<path fill="#FFFFFF" d="M38.627,55.596c-0.209-0.204-0.438-0.389-0.682-0.554c-0.012-0.007-0.022-0.016-0.034-0.022
			c-0.224-0.149-0.463-0.274-0.711-0.385c-0.037-0.016-0.072-0.034-0.109-0.051c-0.227-0.093-0.465-0.161-0.708-0.219
			c-0.058-0.014-0.114-0.036-0.174-0.047c-0.296-0.06-0.601-0.093-0.915-0.093c-2.322,0-4.261,1.65-4.702,3.85
			c-1.056,0-2.976,0.901-2.976,2.87c0,0.197,0.02,0.389,0.058,0.574c0.018,0.086,0.051,0.167,0.076,0.25
			c0.029,0.096,0.05,0.193,0.088,0.283c0.047,0.114,0.111,0.22,0.173,0.325c0.029,0.052,0.052,0.106,0.084,0.156
			c0.084,0.126,0.182,0.241,0.285,0.352c0.02,0.021,0.035,0.046,0.054,0.067c0.121,0.122,0.253,0.233,0.394,0.333
			c0.006,0.004,0.011,0.01,0.017,0.014c0.439,0.307,0.969,0.491,1.542,0.513c0.007,0,0.015,0.003,0.022,0.003h0.001L38.627,55.596
			L38.627,55.596z"/>
		<path fill="#FFFFFF" d="M57.396,67.149c0.122,0.121,0.255,0.231,0.397,0.328c0.032,0.021,0.067,0.036,0.1,0.057
			c0.122,0.076,0.247,0.148,0.38,0.205c0.055,0.024,0.114,0.038,0.169,0.058c0.118,0.042,0.236,0.085,0.361,0.112
			c0.068,0.015,0.142,0.017,0.21,0.026c0.104,0.015,0.205,0.038,0.312,0.04l0.009-0.008l8.212-8.212
			c-0.865-0.841-2.033-1.37-3.335-1.37c-2.321,0-4.261,1.651-4.703,3.85c-1.056,0-2.973,0.9-2.975,2.866c0,0.001,0,0.002,0,0.004
			c0,0.794,0.322,1.508,0.841,2.026C57.382,67.138,57.39,67.143,57.396,67.149z"/>
	</g>
	<g>
		<path fill="#5B5D60" d="M49.754,65.207c0.768,0,1.462,0.316,1.964,0.819C51.217,65.521,50.522,65.207,49.754,65.207z"/>
		<path fill="#5B5D60" d="M51.756,66.072c-0.014-0.014-0.023-0.031-0.037-0.044l-0.012,0.012l-1.936,1.936l-0.011,0.011
			l-0.028,0.028l-1.911,1.91c0.037,0.035,0.065,0.078,0.103,0.111c0.121,0.108,0.252,0.206,0.39,0.293
			c0.005,0.003,0.01,0.004,0.015,0.009c0.031,0.019,0.064,0.033,0.096,0.051c0.104,0.058,0.208,0.114,0.32,0.158
			c0.047,0.019,0.098,0.029,0.146,0.046c0.109,0.036,0.218,0.074,0.333,0.097c0.172,0.033,0.348,0.054,0.529,0.054
			s0.357-0.021,0.529-0.054c0.066-0.012,0.128-0.036,0.193-0.054c0.048-0.014,0.096-0.028,0.144-0.044
			c0.047-0.017,0.097-0.027,0.143-0.045c0.143-0.058,0.279-0.128,0.41-0.207c0.007-0.004,0.015-0.008,0.022-0.012
			c0.137-0.085,0.266-0.182,0.386-0.289c0.572-0.506,0.94-1.238,0.94-2.063c0-0.001,0-0.002,0-0.004
			C52.52,67.234,52.227,66.568,51.756,66.072z"/>
		<path fill="#5B5D60" d="M47.807,69.939l0.015-0.015c-0.1-0.098-0.199-0.197-0.283-0.308
			C47.622,69.729,47.708,69.841,47.807,69.939z"/>
		<path fill="#5B5D60" d="M47.509,69.583c-0.118-0.162-0.22-0.334-0.3-0.521C47.289,69.248,47.392,69.42,47.509,69.583z"/>
		<path fill="#5B5D60" d="M47.538,69.617c-0.009-0.013-0.02-0.022-0.029-0.034C47.518,69.595,47.529,69.604,47.538,69.617z"/>
	</g>
	<path fill="#999899" d="M51.718,66.026c-0.502-0.503-1.196-0.819-1.964-0.819c-0.544,0-1.048,0.163-1.477,0.435
		c-0.554,0.352-0.966,0.895-1.16,1.536c-0.077,0.254-0.131,0.519-0.131,0.798c0,0.192,0.019,0.379,0.057,0.561
		c0.004,0.021,0.013,0.037,0.017,0.057c0.037,0.159,0.083,0.316,0.146,0.466c0,0.001,0.002,0.003,0.002,0.004
		c0.142,0.331,0.345,0.628,0.597,0.877l1.926-1.925l0.028-0.028l0.011-0.011l1.936-1.936l0.012-0.012
		C51.719,66.028,51.718,66.028,51.718,66.026z"/>
</g>
</svg>
