<?xml version="1.0" encoding="utf-8"?>
<!-- Generator: Adobe Illustrator 16.0.0, SVG Export Plug-In . SVG Version: 6.00 Build 0)  -->
<!DOCTYPE svg PUBLIC "-//W3C//DTD SVG 1.1//EN" "http://www.w3.org/Graphics/SVG/1.1/DTD/svg11.dtd">
<svg version="1.1" id="Layer_1" xmlns="http://www.w3.org/2000/svg" xmlns:xlink="http://www.w3.org/1999/xlink" x="0px" y="0px"
	 width="100px" height="100px" viewBox="0 0 100 100" enable-background="new 0 0 100 100" xml:space="preserve">
<g>
	<g>
		<g>
			<path fill="#939598" d="M11.098,15.983c0-2.562,2.077-4.639,4.639-4.639h34.017L69.082,27.58v56.438
				c0,2.562-2.076,4.639-4.639,4.639H15.737c-2.562,0-4.639-2.077-4.639-4.639V15.983z"/>
		</g>
		<g>
			<path fill="#808285" d="M49.754,11.344v11.597c0,2.562,2.076,4.639,4.639,4.639h14.689L49.754,11.344z"/>
		</g>
	</g>
	<g>
		<path fill="#E2E4E5" d="M46.13,68.12h12.08c0.665,0,1.208-0.542,1.208-1.208v-6.04c0-0.667-0.543-1.208-1.208-1.208H46.13
			c-0.666,0-1.208,0.541-1.208,1.208v6.04C44.922,67.578,45.464,68.12,46.13,68.12z"/>
	</g>
	<g>
		<path fill="#B6BCBD" d="M58.21,70.536H46.13c-1.999,0-3.624-1.626-3.624-3.624v-6.04c0-1.998,1.625-3.624,3.624-3.624h12.08
			c1.998,0,3.624,1.626,3.624,3.624v6.04C61.834,68.91,60.208,70.536,58.21,70.536z M46.13,59.664c-0.666,0-1.208,0.541-1.208,1.208
			v6.04c0,0.666,0.542,1.208,1.208,1.208h12.08c0.665,0,1.208-0.542,1.208-1.208v-6.04c0-0.667-0.543-1.208-1.208-1.208H46.13z"/>
	</g>
	<g>
		<path fill="#E2E4E5" d="M19.554,68.12h12.08c0.666,0,1.208-0.542,1.208-1.208v-6.04c0-0.667-0.542-1.208-1.208-1.208h-12.08
			c-0.666,0-1.208,0.541-1.208,1.208v6.04C18.346,67.578,18.888,68.12,19.554,68.12z"/>
	</g>
	<g>
		<path fill="#B6BCBD" d="M31.634,70.536h-12.08c-1.999,0-3.624-1.626-3.624-3.624v-6.04c0-1.998,1.625-3.624,3.624-3.624h12.08
			c1.999,0,3.624,1.626,3.624,3.624v6.04C35.258,68.91,33.632,70.536,31.634,70.536z M19.554,59.664
			c-0.666,0-1.208,0.541-1.208,1.208v6.04c0,0.666,0.542,1.208,1.208,1.208h12.08c0.666,0,1.208-0.542,1.208-1.208v-6.04
			c0-0.667-0.542-1.208-1.208-1.208H19.554z"/>
	</g>
	<g>
		<path fill="#EF843C" d="M32.842,43.96h12.08c0.666,0,1.208-0.542,1.208-1.208v-6.04c0-0.667-0.542-1.208-1.208-1.208h-12.08
			c-0.666,0-1.208,0.542-1.208,1.208v6.04C31.634,43.418,32.176,43.96,32.842,43.96z"/>
	</g>
	<g>
		<g>
			<polygon fill="#D0D3D4" points="44.042,46.376 41.315,46.376 47.009,57.248 49.737,57.248 			"/>
		</g>
	</g>
	<g>
		<g>
			<polygon fill="#D0D3D4" points="33.722,46.376 28.026,57.248 30.754,57.248 36.449,46.376 			"/>
		</g>
	</g>
	<g>
		<path fill="#F15A32" d="M44.922,46.376h-12.08c-1.998,0-3.624-1.625-3.624-3.624v-6.04c0-1.998,1.625-3.624,3.624-3.624h12.08
			c1.999,0,3.624,1.626,3.624,3.624v6.04C48.546,44.75,46.92,46.376,44.922,46.376z M32.842,35.504
			c-0.666,0-1.208,0.542-1.208,1.208v6.04c0,0.667,0.542,1.208,1.208,1.208h12.08c0.666,0,1.208-0.542,1.208-1.208v-6.04
			c0-0.667-0.542-1.208-1.208-1.208H32.842z"/>
	</g>
	<g>
		<g>
			<path fill="#F4D0A1" d="M84.96,53.018L59.347,81.971l-7.099,1.462c-0.207-0.989-0.718-1.926-1.532-2.646
				c-0.814-0.721-1.805-1.113-2.812-1.197l0.584-7.225l25.613-28.952L84.96,53.018z"/>
		</g>
	</g>
	<g>
		<g>
			<path fill="#EF843C" d="M84.925,52.987c0.019,0.017,0.021,0.047,0.005,0.065L59.898,81.348c-0.042,0.046-0.105-0.004-0.076-0.057
				c0.786-1.45,0.502-3.295-0.789-4.437c-1.36-1.203-3.364-1.201-4.716-0.073c-0.039,0.03-0.09-0.015-0.063-0.057
				c0.955-1.479,0.712-3.469-0.649-4.672c-1.304-1.153-3.198-1.201-4.543-0.21c-0.044,0.032-0.093-0.019-0.058-0.059l25.069-28.336
				c0.016-0.02,0.046-0.021,0.065-0.004L84.925,52.987z"/>
		</g>
	</g>
	<g>
		<g>
			
				<rect x="73.084" y="46.103" transform="matrix(0.749 0.6626 -0.6626 0.749 51.5095 -41.3503)" fill="#FACC1C" width="14.496" height="2.416"/>
		</g>
	</g>
	<g>
		<g>
			<path fill="#F59392" d="M85.989,41.025l-0.108-0.096c-2.969-2.625-7.503-2.348-10.129,0.62l-0.049,0.054l10.856,9.604
				l0.049-0.054C89.234,48.186,88.957,43.651,85.989,41.025z"/>
		</g>
	</g>
	<g>
		<g>
			<path fill="#F15A32" d="M84.93,53.052L59.866,81.383c-0.037,0.042-0.094-0.002-0.066-0.051c0.814-1.455,0.536-3.325-0.767-4.478
				c-1.356-1.201-3.354-1.201-4.707-0.082c-0.022,0.02-0.05-0.01-0.03-0.031L79.501,48.25c0.017-0.02,0.046-0.021,0.063-0.004
				l5.36,4.742C84.943,53.004,84.946,53.033,84.93,53.052z"/>
		</g>
	</g>
	<g>
		<g>
			<path fill="#3E3E3F" d="M52.248,83.433l-4.733,0.974l0.39-4.816c1.006,0.084,1.998,0.477,2.812,1.197
				C51.53,81.507,52.041,82.443,52.248,83.433z"/>
		</g>
	</g>
</g>
</svg>
