<?xml version="1.0" encoding="utf-8"?>
<!-- Generator: Adobe Illustrator 16.0.0, SVG Export Plug-In . SVG Version: 6.00 Build 0)  -->
<!DOCTYPE svg PUBLIC "-//W3C//DTD SVG 1.1//EN" "http://www.w3.org/Graphics/SVG/1.1/DTD/svg11.dtd">
<svg version="1.1" id="Layer_1" xmlns="http://www.w3.org/2000/svg" xmlns:xlink="http://www.w3.org/1999/xlink" x="0px" y="0px"
	 width="100px" height="100px" viewBox="0 0 100 100" enable-background="new 0 0 100 100" xml:space="preserve">
<g>
	<g>
		<path fill="#808285" d="M96.968,85.41c0,6.519-5.285,11.804-11.804,11.804h-70.82c-6.519,0-11.804-5.285-11.804-11.804V14.59
			c0-6.519,5.285-11.804,11.804-11.804h70.82c6.519,0,11.804,5.285,11.804,11.804V85.41z"/>
	</g>
	<g>
		<path fill="#939598" d="M85.164,2.786h-70.82C7.825,2.786,2.54,8.07,2.54,14.59v70.82c0,3.334,1.388,6.339,3.609,8.484
			l87.5-87.499C91.503,4.174,88.498,2.786,85.164,2.786z"/>
	</g>
	<g>
		<path fill="#3E3E3F" d="M29.098,75.82c0,3.259-2.643,5.901-5.901,5.901c-3.259,0-5.902-2.643-5.902-5.901V22.705
			c0-3.259,2.643-5.902,5.902-5.902c3.259,0,5.901,2.643,5.901,5.902V75.82z"/>
	</g>
	<g>
		<path fill="#3E3E3F" d="M55.655,75.82c0,3.259-2.643,5.901-5.901,5.901c-3.259,0-5.902-2.643-5.902-5.901V22.705
			c0-3.259,2.643-5.902,5.902-5.902c3.259,0,5.901,2.643,5.901,5.902V75.82z"/>
	</g>
	<g>
		<path fill="#3E3E3F" d="M82.214,75.82c0,3.259-2.643,5.901-5.902,5.901c-3.259,0-5.901-2.643-5.901-5.901V22.705
			c0-3.259,2.643-5.902,5.901-5.902c3.26,0,5.902,2.643,5.902,5.902V75.82z"/>
	</g>
	<g>
		<path fill="#F15A32" d="M33.524,38.196c0-1.629-1.542-2.951-3.442-2.951H16.31c-1.9,0-3.442,1.321-3.442,2.951v5.902
			c0,1.63,1.542,2.951,3.442,2.951h13.772c1.9,0,3.442-1.321,3.442-2.951V38.196z"/>
	</g>
	<g>
		<path fill="#F15A32" d="M86.64,38.196c0-1.629-1.542-2.951-3.442-2.951H69.426c-1.9,0-3.442,1.321-3.442,2.951v5.902
			c0,1.63,1.542,2.951,3.442,2.951h13.771c1.9,0,3.442-1.321,3.442-2.951V38.196z"/>
	</g>
	<g>
		<path fill="#F15A32" d="M60.082,55.901c0-1.629-1.542-2.95-3.442-2.95H42.868c-1.9,0-3.442,1.321-3.442,2.95v5.902
			c0,1.629,1.542,2.95,3.442,2.95H56.64c1.9,0,3.442-1.321,3.442-2.95V55.901z"/>
	</g>
</g>
</svg>
