<?xml version="1.0" encoding="utf-8"?>
<!-- Generator: Adobe Illustrator 16.0.0, SVG Export Plug-In . SVG Version: 6.00 Build 0)  -->
<!DOCTYPE svg PUBLIC "-//W3C//DTD SVG 1.1//EN" "http://www.w3.org/Graphics/SVG/1.1/DTD/svg11.dtd">
<svg version="1.1" id="Layer_1" xmlns="http://www.w3.org/2000/svg" xmlns:xlink="http://www.w3.org/1999/xlink" x="0px" y="0px"
	 width="100px" height="100px" viewBox="0 0 100 100" enable-background="new 0 0 100 100" xml:space="preserve">
<g>
	<g>
		<path fill="#808285" d="M92.254,74.58c0,2.108-1.73,3.818-3.863,3.818H11.118c-2.134,0-3.864-1.71-3.864-3.818V21.125
			c0-2.108,1.729-3.818,3.864-3.818h77.273c2.133,0,3.863,1.71,3.863,3.818V74.58z"/>
	</g>
	<g>
		<rect x="38.163" y="78.398" fill="#353535" width="23.182" height="9.783"/>
	</g>
	<g>
		<path fill="#3E3E3F" d="M69.071,90.09c0,1.056-0.863,1.91-1.931,1.91H32.368c-1.067,0-1.932-0.854-1.932-1.91
			c0-1.053,0.865-1.908,1.932-1.908h34.773C68.208,88.182,69.071,89.037,69.071,90.09z"/>
	</g>
	<g>
		<path fill="#3E3E3F" d="M92.254,74.58V63.125h-85V74.58c0,2.108,1.73,3.818,3.864,3.818h77.273
			C90.523,78.398,92.254,76.688,92.254,74.58z"/>
	</g>
	<g>
		<path fill="#353535" d="M49.754,76.131c-2.862,0-5.192-2.302-5.192-5.131s2.33-5.13,5.192-5.13s5.191,2.301,5.191,5.13
			S52.616,76.131,49.754,76.131z M49.754,68.495c-1.398,0-2.536,1.123-2.536,2.505s1.138,2.506,2.536,2.506
			c1.398,0,2.535-1.124,2.535-2.506S51.152,68.495,49.754,68.495z"/>
	</g>
	<g>
		<path fill="#939598" d="M7.254,21.125v42h26.195l46.364-45.818H11.118C8.984,17.307,7.254,19.017,7.254,21.125z"/>
	</g>
	<g>
		<ellipse fill="#F15A32" cx="49.754" cy="29" rx="21.25" ry="21"/>
	</g>
	<g>
		<path fill="#FFFFFF" d="M62.901,30.714c-0.271-0.646-0.909-1.068-1.617-1.068h-4.526V17.535c0-0.956-0.785-1.73-1.751-1.73H44.502
			c-0.967,0-1.751,0.774-1.751,1.73v12.111h-4.527c-0.708,0-1.346,0.422-1.617,1.068c-0.271,0.647-0.122,1.391,0.379,1.886
			l11.496,10.401c0.684,0.676,1.792,0.676,2.476,0L62.521,32.6C63.023,32.104,63.173,31.361,62.901,30.714z"/>
	</g>
</g>
</svg>
