<?xml version="1.0" encoding="utf-8"?>
<!-- Generator: Adobe Illustrator 16.0.0, SVG Export Plug-In . SVG Version: 6.00 Build 0)  -->
<!DOCTYPE svg PUBLIC "-//W3C//DTD SVG 1.1//EN" "http://www.w3.org/Graphics/SVG/1.1/DTD/svg11.dtd">
<svg version="1.1" id="Layer_1" xmlns="http://www.w3.org/2000/svg" xmlns:xlink="http://www.w3.org/1999/xlink" x="0px" y="0px"
	 width="100px" height="100px" viewBox="0 0 100 100" enable-background="new 0 0 100 100" xml:space="preserve">
<g>
	<g>
		<path fill="#808285" d="M82.504,17.25c0-3.015-2.443-5.458-5.458-5.458H22.462c-3.014,0-5.458,2.444-5.458,5.458v38.208h65.5
			V17.25z"/>
	</g>
	<g>
		<path fill="#939598" d="M17.003,17.25v38.208H32.1l43.667-43.667H22.462C19.448,11.792,17.003,14.235,17.003,17.25z"/>
	</g>
	<g>
		<path fill="#3E3E3F" d="M89.562,86.609c-1.023,1.023-2.412,1.6-3.859,1.6H13.806c-1.448,0-2.836-0.576-3.86-1.6L6.087,82.75
			h87.334L89.562,86.609z"/>
	</g>
	<g>
		<polygon fill="#353535" points="82.504,55.458 17.003,55.458 6.087,82.75 93.421,82.75 		"/>
	</g>
	<g>
		<path fill="#3E3E3F" d="M58.552,74.419c-0.336-0.672-1.225-1.221-1.975-1.221H42.931c-0.75,0-1.639,0.549-1.975,1.221
			l-1.509,3.017c-0.335,0.672,0.004,1.221,0.754,1.221h19.104c0.751,0,1.091-0.549,0.755-1.221L58.552,74.419z"/>
	</g>
	<g>
		<path fill="#3E3E3F" d="M77.046,67.739c0,0.751-0.614,1.365-1.364,1.365h-50.49c-0.75,0-1.365-0.614-1.365-1.365l0,0
			c0-0.75,0.614-1.364,1.365-1.364h50.49C76.432,66.375,77.046,66.989,77.046,67.739L77.046,67.739z"/>
	</g>
	<g>
		<path fill="#3E3E3F" d="M74.627,62.281c0,0.75-0.614,1.364-1.364,1.364H27.61c-0.75,0-1.365-0.614-1.365-1.364l0,0
			c0-0.75,0.615-1.364,1.365-1.364h45.653C74.013,60.917,74.627,61.531,74.627,62.281L74.627,62.281z"/>
	</g>
	<g>
		<polygon fill="#3E3E3F" points="32.1,55.458 17.003,55.458 6.94,80.618 		"/>
	</g>
</g>
<g>
	<g>
		<g>
			<g>
				<path fill="#FAC8C8" d="M38.376,52.199c0,0,2.459-6.762-1.585-11.324c-0.221-0.249-0.219-0.625,0.006-0.87
					c1.396-1.526,3.875-1.494,7.436,5.036c0.93,1.704,2.869,1.612,4.556,0.65c3.207-1.831,7.834-7.663,12.69-6.242
					c0.221,0.064,0.391,0.24,0.447,0.462c0.058,0.224-0.008,0.46-0.17,0.621L44.883,57.406L38.376,52.199z"/>
			</g>
		</g>
	</g>
	<g>
		<g>
			<g>
				<path fill="#F1F1F1" d="M70.914,38.533c0,0.36-0.29,0.65-0.65,0.65H29.916c-0.36,0-0.651-0.291-0.651-0.65v-1.301
					c0-0.36,0.291-0.651,0.651-0.651h40.348c0.36,0,0.65,0.291,0.65,0.651V38.533z"/>
			</g>
		</g>
	</g>
	<g>
		<g>
			<g>
				<path fill="#FFFFFF" d="M50.09,18.359c0.678,0,1.324,0.029,1.952,0.074v-2.027c0-0.359-0.29-0.651-0.651-0.651h-2.602
					c-0.359,0-0.651,0.292-0.651,0.651v2.027C48.766,18.389,49.412,18.359,50.09,18.359z"/>
			</g>
		</g>
	</g>
	<g>
		<g>
			<g>
				<path fill="#E2E4E5" d="M31.868,36.581c0,0-0.651-18.221,18.222-18.221c18.872,0,18.222,18.221,18.222,18.221H31.868z"/>
			</g>
		</g>
	</g>
	<g>
		<g>
			<g>
				<polygon fill="#353535" points="38.376,52.199 31.868,57.406 44.883,57.406 				"/>
			</g>
		</g>
	</g>
	<g>
		<g>
			<g>
				<path fill="#FFFFFF" d="M50.09,18.359c-18.873,0-18.222,18.221-18.222,18.221H50.09V18.359z"/>
			</g>
		</g>
	</g>
	<g>
		<g>
			<g>
				<path fill="#FAC8C8" d="M38.376,52.199c0,0,2.459-6.762-1.585-11.324c-0.221-0.249-0.219-0.625,0.006-0.87
					c1.396-1.526,3.875-1.494,7.436,5.036c0.93,1.704,2.869,1.612,4.556,0.65c3.207-1.831,7.834-7.663,12.69-6.242
					c0.221,0.064,0.391,0.24,0.447,0.462c0.058,0.224-0.008,0.46-0.17,0.621L44.883,57.406L38.376,52.199z"/>
			</g>
		</g>
	</g>
	<g>
		<g>
			<g>
				<path fill="#F7B4B4" d="M61.756,40.533c0.162-0.163,0.228-0.397,0.17-0.621c-0.057-0.223-0.227-0.398-0.447-0.462
					c-4.855-1.42-9.483,4.411-12.69,6.242c-1.687,0.962-3.626,1.054-4.556-0.65c-3.562-6.53-6.04-6.562-7.436-5.036
					c-0.225,0.245-0.227,0.621-0.006,0.87c4.044,4.562,1.585,11.324,1.585,11.324l1.774,1.42L60.309,41.98L61.756,40.533z"/>
			</g>
		</g>
	</g>
</g>
</svg>
