<?xml version="1.0" encoding="utf-8"?>
<!-- Generator: Adobe Illustrator 16.0.0, SVG Export Plug-In . SVG Version: 6.00 Build 0)  -->
<!DOCTYPE svg PUBLIC "-//W3C//DTD SVG 1.1//EN" "http://www.w3.org/Graphics/SVG/1.1/DTD/svg11.dtd">
<svg version="1.1" id="Layer_1" xmlns="http://www.w3.org/2000/svg" xmlns:xlink="http://www.w3.org/1999/xlink" x="0px" y="0px"
	 width="100px" height="100px" viewBox="0 0 100 100" enable-background="new 0 0 100 100" xml:space="preserve">
<g>
	<g>
		<path fill="#808285" d="M85.729,63.122c-3.854-3.854-9.31-5.112-14.223-3.803L44.82,32.633c2.145-6.052,0.816-13.061-4.027-17.904
			c-4.846-4.846-11.86-6.174-17.915-4.023l12.706,12.705v6.946l-3.472,3.473h-6.946L12.459,21.124
			c-2.15,6.055-0.821,13.069,4.024,17.915c4.849,4.849,11.869,6.176,17.927,4.02l26.677,26.679
			c-1.308,4.912-0.049,10.368,3.805,14.222c5.754,5.754,15.083,5.754,20.837,0C91.482,78.206,91.482,68.876,85.729,63.122z
			 M77.602,82.094l-8.552-2.292l-2.292-8.553l6.261-6.26l8.553,2.291l2.29,8.552L77.602,82.094z"/>
	</g>
	<g>
		<path fill="#939598" d="M71.506,59.319L44.82,32.633c2.145-6.052,0.816-13.061-4.027-17.904
			c-4.846-4.846-11.86-6.174-17.915-4.024l12.706,12.706v6.946l-1.664,1.664l36.034,36.034l3.065-3.065l8.553,2.291l2.29,8.552
			l-3.065,3.067l4.994,4.992c5.688-5.759,5.67-15.037-0.062-20.77C81.874,59.269,76.419,58.01,71.506,59.319z"/>
	</g>
	<g>
		<path fill="#F15A32" d="M49.266,65.06c0.929-0.929,1.295-2.289,0.956-3.559c-0.329-1.229-0.011-2.595,0.953-3.56l3.474-3.473
			c0.479-0.479,0.479-1.257,0-1.736l-6.946-6.946c-0.479-0.479-1.256-0.479-1.736,0l-3.474,3.473
			c-0.964,0.964-2.33,1.282-3.559,0.953c-1.272-0.339-2.628,0.025-3.559,0.956l-22.4,22.4c-4.34,4.341,9.55,18.231,13.891,13.891
			L49.266,65.06z"/>
	</g>
	<g>
		<polygon fill="#939598" points="85.363,11.6 70.603,19.413 69.734,25.491 48.57,46.655 53.78,51.864 74.944,30.7 80.934,29.918 
			88.934,15.17 		"/>
	</g>
	<g>
		<polygon fill="#808285" points="85.361,11.6 70.603,19.413 69.734,25.49 48.57,46.655 51.449,49.533 87.372,13.609 		"/>
	</g>
	<g>
		<path fill="#EF843C" d="M47.702,45.787c-0.479-0.479-1.256-0.479-1.736,0l-3.474,3.473c-0.964,0.964-2.33,1.282-3.559,0.953
			c-1.272-0.34-2.628,0.025-3.559,0.956l-22.4,22.4c-2.228,2.227,0.348,6.965,3.968,10.469l34.507-34.505L47.702,45.787z"/>
	</g>
</g>
</svg>
